<!--?xml version="1.0" standalone="no"?-->
              <svg id="sw-js-blob-svg" viewBox="0 0 100 100" xmlns="http://www.w3.org/2000/svg" version="1.1">
                    <defs> 
                        <linearGradient id="sw-gradient" x1="0" x2="1" y1="1" y2="0">
                            <stop id="stop1" stop-color="rgba(255, 5, 19, 1)" offset="0%"></stop>
                            <stop id="stop2" stop-color="rgba(4, 2, 33, 1)" offset="100%"></stop>
                        </linearGradient>
                    </defs>
                <path fill="url(#sw-gradient)" d="M16.9,-21.3C23.7,-14.5,32.1,-10.8,35.6,-4.3C39.1,2.2,37.6,11.5,32.5,17.1C27.3,22.7,18.5,24.5,9.9,28C1.3,31.6,-7,36.7,-14.7,35.9C-22.3,35,-29.4,28,-31.1,20.3C-32.8,12.6,-29.2,4,-26.8,-3.9C-24.4,-11.9,-23.4,-19.3,-19.2,-26.6C-14.9,-33.9,-7.5,-41,-1.2,-39.6C5.1,-38.2,10.1,-28.2,16.9,-21.3Z" width="100%" height="100%" transform="translate(50 50)" stroke-width="0" style="transition: all 0.3s ease 0s;" stroke="url(#sw-gradient)"></path>
              </svg>